# AST/ASF file generated using VICON BodyLanguage
# -----------------------------------------------
:version 1.10
:name VICON
:units
  mass 1.0
  length 0.45
  angle deg
:documentation
   .ast/.asf automatically generated from VICON data using
   VICON BodyBuilder and BodyLanguage model FoxedUp or BRILLIANT.MOD
:root
   order TX TY TZ RX RY RZ
   axis XYZ
   position 0 0 0  
   orientation 0 0 0 
:bonedata
  begin
     id 1 
     name lhipjoint
     direction 0.645893 -0.654526 0.392961 
     length 2.38111 
     axis 0 0 0  XYZ
  end
  begin
     id 2 
     name lfemur
     direction 0.34202 -0.939693 0  
     length 6.6822  
     axis 0 0 20  XYZ
    dof rx ry rz
    limits (-160.0 20.0)
           (-70.0 70.0)
           (-60.0 70.0)
  end
  begin
     id 3 
     name ltibia
     direction 0.34202 -0.939693 0   
     length 6.93904   
     axis 0 0 20   XYZ
    dof rx
    limits (-10.0 170.0)
  end
  begin
     id 4 
     name lfoot
     direction 0.0694967 -0.190941 0.979138   
     length 2.13616   
     axis -90 7.62852e-016 20   XYZ
    dof rx rz
    limits (-45.0 90.0)
           (-70.0 20.0)
  end
  begin
     id 5 
     name ltoes
     direction 1.535e-011 -4.2202e-011 1   
     length 1.07536   
     axis -90 7.62852e-016 20   XYZ
    dof rx
    limits (-90.0 20.0)
  end
  begin
     id 6 
     name rhipjoint
     direction -0.700219 -0.612087 0.367481   
     length 2.54621  
     axis 0 0 0  XYZ 
  end
  begin
     id 7 
     name rfemur
     direction -0.34202 -0.939693 0   
     length 6.55353   
     axis 0 0 -20   XYZ
    dof rx ry rz
    limits (-160.0 20.0)
           (-70.0 70.0)
           (-70.0 60.0)
  end
  begin
     id 8 
     name rtibia
     direction -0.34202 -0.939693 0   
     length 6.8736   
     axis 0 0 -20   XYZ
    dof rx
    limits (-10.0 170.0)
 end
 begin
     id 9 
     name rfoot
     direction -0.0679995 -0.186827 0.980037   
     length 2.1218  
     axis -90 -7.62852e-016 -20   XYZ
    dof rx rz
    limits (-45.0 90.0)
           (-20.0 70.0)
  end
  begin
     id 10 
     name rtoes
     direction -1.53589e-011 -4.21772e-011 1   
     length 1.06864   
     axis -90 -7.62852e-016 -20   XYZ
    dof rx
    limits (-90.0 20.0)
  end
  begin
     id 11 
     name lowerback
     direction -0.0416607 0.996347 -0.0745409   
     length 2.12205   
     axis 0 0 0   XYZ
    dof rx ry rz
    limits (-20.0 45.0)
           (-30.0 30.0)
           (-30.0 30.0)
  end
  begin
     id 12 
     name upperback
     direction -0.000153993 0.999276 -0.0380568   
     length 2.12759   
     axis 0 0 0   XYZ
    dof rx ry rz
    limits (-20.0 45.0)
           (-30.0 30.0)
           (-30.0 30.0)
  end
  begin
     id 13 
     name thorax
     direction 0.0187671 0.999821 -0.00241421   
     length 2.13704   
     axis 0 0 0   XYZ
    dof rx ry rz
    limits (-20.0 45.0)
           (-30.0 30.0)
           (-30.0 30.0)
  end
  begin
     id 14 
     name lowerneck
     direction 0.0268157 0.964865 0.261374   
     length 1.65253   
     axis 0 0 0   XYZ
    dof rx ry rz
    limits (-20.0 45.0)
           (-30.0 30.0)
           (-30.0 30.0)
  end
  begin
     id 15 
     name upperneck
     direction 0.00263774 0.939908 -0.341418   
     length 1.72375   
     axis 0 0 0   XYZ
    dof rx ry rz
    limits (-20.0 45.0)
           (-30.0 30.0)
           (-30.0 30.0)
  end
  begin
     id 16
     name head
     direction -0.00526001 0.989001 -0.147818  
     length 1.74878  
     axis 0 0 0   XYZ
    dof rx ry rz
    limits (-20.0 45.0)
           (-30.0 30.0)
           (-30.0 30.0)
  end
  begin
     id 17 
     name lclavicle
     direction 0.881214 0.461162 -0.103884  
     length 3.25108  
     axis 0 0 0   XYZ
    dof ry rz
    limits (-20.0 10.0)
           (0.0 20.0)
  end
  begin
     id 18 
     name lhumerus
     direction 1 -4.4899e-011 3.38092e-027   
     length 4.87408   
     axis 180 -30 -90   XYZ
    dof rx ry rz
    limits (-60.0 90.0)
           (-90.0 90.0)
           (-90.0 90.0)
  end
  begin
     id 19
     name lradius
     direction 1 -4.48931e-011 9.96288e-027   
     length 2.76729   
     axis 180 -30 -90   XYZ
    dof rx
    limits (-10.0 170.0)
  end
  begin
     id 20
     name lwrist
     direction 1 -4.4896e-011 1.50617e-026   
     length 1.38364   
     axis -9.31234e-015 90 90   XYZ
    dof ry
    limits (-180.0 0.0)
 end
  begin
     id 21 
     name lhand
     direction 1 -4.49038e-011 3.01286e-026   
     length 0.98922   
     axis -1.92217e-014 90 90   XYZ
    dof rx rz
    limits (-90.0 90.0)
           (-45.0 45.0)
  end
  begin
     id 22 
     name lfingers
     direction 1 -4.49051e-011 6.02588e-026   
     length 0.797535   
     axis -3.84436e-014 90 90   XYZ
    dof rx
    limits (0.0 90.0)
  end
  begin
     id 23
     name lthumb
     direction 0.707107 -6.34901e-011 0.707107   
     length 1.14511   
     axis -90 45 2.19363e-014   XYZ
    dof rx rz
    limits (-45.0 45.0)
           (-45.0 45.0)
  end
  begin
     id 24 
     name rclavicle
     direction -0.893894 0.441652 -0.0767889   
     length 3.29361  
     axis 0 0 0   XYZ 
    dof ry rz
    limits (-10.0 20.0)
           (-20.0 0.0)
  end
  begin
     id 25 
     name rhumerus
     direction -1 -4.48945e-011 8.0491e-028  
     length 4.71404   
     axis 180 30 90   XYZ
    dof rx ry rz
    limits (-90.0 60.0)
           (-90.0 90.0)
           (-90.0 90.0)
  end
  begin
     id 26 
     name rradius
     direction -1 -4.48986e-011 9.27795e-027   
     length 2.83468   
     axis 180 30 90   XYZ
    dof rx
    limits (-10.0 170.0)
  end
  begin
     id 27 
     name rwrist
     direction -1 -4.49029e-011 1.5064e-026   
     length 1.41734   
     axis -9.31234e-015 -90 -90   XYZ
    dof ry
    limits (-180.0 0.0)
  end
  begin
     id 28
     name rhand
     direction -1 -4.48857e-011 3.01165e-026   
     length 0.868195   
     axis -1.92217e-014 -90 -90   XYZ
    dof rx rz
    limits (-90.0 90.0)
           (-45.0 45.0)
  end
  begin
     id 29
     name rfingers
     direction -1 -4.49048e-011 6.02585e-026   
     length 0.699961   
     axis -3.84436e-014 -90 -90   XYZ
    dof rx
    limits (0.0 90.0)
  end
  begin
     id 30
     name rthumb
     direction -0.707107 -6.34854e-011 0.707107   
     length 1.00501   
     axis -90 -45 -2.19363e-014   XYZ
    dof rx rz
    limits (-45.0 45.0)
           (-45.0 45.0)
  end
:hierarchy
  begin
    root lhipjoint rhipjoint lowerback
    lhipjoint lfemur
    lfemur ltibia
    ltibia lfoot
    lfoot ltoes
    rhipjoint rfemur
    rfemur rtibia
    rtibia rfoot
    rfoot rtoes
    lowerback upperback
    upperback thorax
    thorax lowerneck lclavicle rclavicle
    lowerneck upperneck
    upperneck head
    lclavicle lhumerus
    lhumerus lradius
    lradius lwrist
    lwrist lhand lthumb
    lhand lfingers
    rclavicle rhumerus
    rhumerus rradius
    rradius rwrist
    rwrist rhand rthumb
    rhand rfingers
  end

#!OML:ASF H:\ManfredObstacles\Project 1\Capture day 2\Session 1\male.ASF
:FULLY-SPECIFIED
:DEGREES
134
root 1.75894 16.7244 -15.4518 -167.531 2.29555 -184.469
lowerback -4.46964 -5.52002 -6.5713
upperback 0.100695 -6.91655 -0.697925
thorax 3.29404 -3.5075 2.38664
lowerneck -34.329 5.04359 7.53877
upperneck 36.1352 6.54987 -4.46604
head 20.5224 3.23236 -1.63381
rclavicle -5.76476e-014 -3.26007e-014
rhumerus -75.6134 9.2141 -89.4425
rradius 103.093
rwrist 4.58514
rhand -14.4711 3.29592
rfingers 7.12502
rthumb 11.6749 -26.3588
lclavicle -5.76476e-014 -3.26007e-014
lhumerus -54.9816 -29.0951 102.267
lradius 113.186
lwrist -20.7534
lhand -13.3417 0.048737
lfingers 7.12502
lthumb 12.7638 29.6386
rfemur -38.1414 5.0199 15.5815
rtibia 26.9661
rfoot 11.8238 -9.49825
rtoes -13.0988
lfemur 6.04925 -3.5898 -29.6753
ltibia 31.2742
lfoot 33.3968 -0.832468
ltoes 3.30163
135
root 1.77158 16.6468 -15.776 -168.031 2.46907 -184.45
lowerback -4.18038 -5.26864 -6.54982
upperback 0.2171 -6.60066 -0.775561
thorax 3.21155 -3.35137 2.34778
lowerneck -34.2507 4.89031 7.38022
upperneck 36.1352 6.42239 -4.45793
head 20.481 3.16905 -1.63767
rclavicle 1.37161e-014 1.98785e-015
rhumerus -75.2426 9.39742 -89.7266
rradius 102.975
rwrist 4.45341
rhand -14.5106 3.16407
rfingers 7.12502
rthumb 11.6367 -26.4928
lclavicle 1.37161e-014 1.98785e-015
lhumerus -55.4818 -28.7899 102.404
lradius 113.041
lwrist -20.8552
lhand -13.4323 -0.066372
lfingers 7.12502
lthumb 12.6764 29.5289
rfemur -37.3016 4.53538 16.1743
rtibia 27.7077
rfoot 11.6423 -8.40292
rtoes -11.0665
lfemur 5.44427 -3.24655 -29.6372
ltibia 34.745
lfoot 32.6295 -0.274036
ltoes 3.25397
136
root 1.78422 16.5582 -16.0971 -168.555 2.66482 -184.353
lowerback -3.84144 -4.97983 -6.46747
upperback 0.329893 -6.24403 -0.82942
thorax 3.09035 -3.1739 2.30603
lowerneck -34.2066 4.69646 7.15276
upperneck 36.2114 6.25913 -4.39024
head 20.4861 3.09467 -1.60884
rclavicle 1.07344e-014 6.36111e-015
rhumerus -74.7839 9.65527 -90.0599
rradius 102.802
rwrist 4.36723
rhand -14.5439 2.98449
rfingers 7.12502
rthumb 11.6046 -26.6742
lclavicle 1.07344e-014 6.36111e-015
lhumerus -55.961 -28.4017 102.521
lradius 112.818
lwrist -20.9823
lhand -13.544 -0.114804
lfingers 7.12502
lthumb 12.5688 29.4871
rfemur -36.3365 4.08341 16.8313
rtibia 28.7014
rfoot 10.5326 -7.24954
rtoes -10.6846
lfemur 4.76622 -2.77104 -29.4602
ltibia 38.31
lfoot 31.8277 0.386699
ltoes 3.065
137
root 1.79706 16.4617 -16.4155 -169.101 2.87542 -184.192
lowerback -3.47386 -4.6611 -6.33102
upperback 0.459657 -5.8522 -0.869484
thorax 2.96461 -2.97872 2.24969
lowerneck -34.1747 4.49871 6.92661
upperneck 36.2902 6.07925 -4.30509
head 20.4943 3.01666 -1.57562
rclavicle 5.87409e-014 -5.56597e-015
rhumerus -74.1918 9.97406 -90.45
rradius 102.552
rwrist 4.31347
rhand -14.5731 2.79337
rfingers 7.12502
rthumb 11.5764 -26.8669
lclavicle 5.87409e-014 -5.56597e-015
lhumerus -56.381 -27.9438 102.581
lradius 112.513
lwrist -21.1288
lhand -13.6682 -0.0797442
lfingers 7.12502
lthumb 12.449 29.5295
rfemur -35.2555 3.76826 17.4852
rtibia 29.9288
rfoot 8.51209 -6.37861
rtoes -12.2526
lfemur 4.03901 -2.19569 -29.1516
ltibia 41.9108
lfoot 31.0209 1.1738
ltoes 2.73705
138
root 1.81067 16.3606 -16.7297 -169.662 3.10547 -183.974
lowerback -3.04949 -4.31151 -6.15402
upperback 0.594628 -5.42463 -0.896631
thorax 2.80847 -2.76465 2.18688
lowerneck -34.1689 4.288 6.67589
upperneck 36.3774 5.8745 -4.18327
head 20.5097 2.93089 -1.52605
rclavicle 8.00108e-014 -6.75868e-015
rhumerus -73.4672 10.3296 -90.893
rradius 102.217
rwrist 4.28689
rhand -14.5923 2.62577
rfingers 7.12502
rthumb 11.558 -27.0355
lclavicle 8.00108e-014 -6.75868e-015
lhumerus -56.7484 -27.4244 102.591
lradius 112.113
lwrist -21.3007
lhand -13.791 0.0322752
lfingers 7.12502
lthumb 12.3306 29.6487
rfemur -34.115 3.74265 18.0731
rtibia 31.3401
rfoot 5.93223 -6.15913
rtoes -14.6875
lfemur 3.25659 -1.52977 -28.7161
ltibia 45.5135
lfoot 30.204 1.99791
ltoes 2.15391
139
root 1.82509 16.2587 -17.0396 -170.224 3.34316 -183.704
lowerback -2.58471 -3.94012 -5.93585
upperback 0.746574 -4.97025 -0.913739
thorax 2.64467 -2.53657 2.11003
lowerneck -34.206 4.08308 6.44026
upperneck 36.463 5.66011 -4.05704
head 20.5362 2.8426 -1.47912
rclavicle -2.29596e-014 2.38542e-015
rhumerus -72.5662 10.71 -91.3918
rradius 101.786
rwrist 4.29699
rhand -14.6033 2.46302
rfingers 7.12502
rthumb 11.5473 -27.1989
lclavicle -2.29596e-014 2.38542e-015
lhumerus -57.0366 -26.845 102.536
lradius 111.609
lwrist -21.469
lhand -13.9061 0.220631
lfingers 7.12502
lthumb 12.2197 29.8437
rfemur -32.9422 3.95718 18.6394
rtibia 32.8646
rfoot 3.20299 -6.60875
rtoes -16.8923
lfemur 2.4126 -0.809975 -28.1554
ltibia 49.0847
lfoot 29.3868 2.81699
ltoes 1.44232
